<svg xmlns="http://www.w3.org/2000/svg" xmlns:xlink="http://www.w3.org/1999/xlink" width="500" zoomAndPan="magnify" viewBox="0 0 375 374.999991" height="500" preserveAspectRatio="xMidYMid meet" version="1.2"><defs/><g id="12063608b5"><path style=" stroke:none;fill-rule:nonzero;fill:#000000;fill-opacity:1;" d="M 28.816406 183.390625 C 68.203125 201.445312 141.371094 182.539062 214.308594 174.882812 C 263.726562 169.691406 277.699219 223.027344 302.21875 184.941406 C 302.988281 183.742188 304.03125 184.691406 303.363281 185.742188 C 278.792969 224.460938 263.378906 171.933594 213.980469 176.34375 C 137.914062 183.132812 74.335938 204.800781 27.007812 186.144531 C 23.710938 184.84375 26.035156 182.117188 28.816406 183.390625 Z M 28.816406 183.390625 "/><g style="fill:#000000;fill-opacity:1;"><g transform="translate(303.132918, 203.557504)"><path style="stroke:none" d="M -2.171875 5.125 C -1.960938 3.363281 -1.753906 1.203125 -1.546875 -1.359375 C -1.347656 -3.921875 -1.078125 -7.09375 -0.734375 -10.875 C -0.398438 -14.65625 -0.0234375 -19.210938 0.390625 -24.546875 C 0.492188 -25.898438 0.867188 -26.9375 1.515625 -27.65625 C 2.160156 -28.382812 2.882812 -28.828125 3.6875 -28.984375 C 4.488281 -29.140625 5.160156 -28.992188 5.703125 -28.546875 C 6.253906 -28.109375 6.476562 -27.425781 6.375 -26.5 C 6.21875 -25.351562 6.007812 -23.71875 5.75 -21.59375 C 5.488281 -19.476562 5.210938 -17.082031 4.921875 -14.40625 C 4.640625 -11.738281 4.34375 -8.992188 4.03125 -6.171875 C 3.726562 -3.347656 3.445312 -0.671875 3.1875 1.859375 C 4.425781 1.191406 6.054688 0.171875 8.078125 -1.203125 C 10.097656 -2.578125 12.300781 -4.179688 14.6875 -6.015625 C 17.070312 -7.859375 19.425781 -9.828125 21.75 -11.921875 C 24.082031 -14.023438 26.179688 -16.140625 28.046875 -18.265625 C 28.148438 -18.421875 28.421875 -18.5 28.859375 -18.5 C 29.304688 -18.5 29.53125 -18.394531 29.53125 -18.1875 C 27.351562 -15.59375 24.96875 -13.113281 22.375 -10.75 C 19.789062 -8.394531 17.210938 -6.257812 14.640625 -4.34375 C 12.078125 -2.425781 9.769531 -0.8125 7.71875 0.5 C 5.675781 1.820312 4.113281 2.769531 3.03125 3.34375 C 2.5625 7.539062 2.039062 11.835938 1.46875 16.234375 C 0.90625 20.640625 0.222656 24.875 -0.578125 28.9375 C -1.378906 33.007812 -2.347656 36.640625 -3.484375 39.828125 C -4.628906 43.015625 -5.96875 45.515625 -7.5 47.328125 C -9.03125 49.140625 -10.804688 49.992188 -12.828125 49.890625 C -14.222656 49.785156 -15.453125 49.046875 -16.515625 47.671875 C -17.578125 46.296875 -18.335938 44.429688 -18.796875 42.078125 C -19.265625 39.722656 -19.359375 37.054688 -19.078125 34.078125 C -18.796875 31.097656 -18.03125 27.945312 -16.78125 24.625 C -15.539062 21.3125 -13.726562 17.984375 -11.34375 14.640625 C -8.957031 11.304688 -5.898438 8.132812 -2.171875 5.125 Z M -2.25 6.84375 C -6.238281 10.257812 -9.375 13.882812 -11.65625 17.71875 C -13.9375 21.550781 -15.53125 25.289062 -16.4375 28.9375 C -17.34375 32.59375 -17.71875 35.910156 -17.5625 38.890625 C -17.40625 41.867188 -16.875 44.238281 -15.96875 46 C -15.0625 47.757812 -13.9375 48.640625 -12.59375 48.640625 C -11.34375 48.640625 -10.25 47.757812 -9.3125 46 C -8.382812 44.238281 -7.554688 41.867188 -6.828125 38.890625 C -6.109375 35.910156 -5.476562 32.59375 -4.9375 28.9375 C -4.394531 25.289062 -3.898438 21.550781 -3.453125 17.71875 C -3.015625 13.882812 -2.613281 10.257812 -2.25 6.84375 Z M 4.8125 -32.953125 C 4.144531 -32.953125 3.679688 -33.285156 3.421875 -33.953125 C 3.160156 -34.628906 3.109375 -35.378906 3.265625 -36.203125 C 3.421875 -37.035156 3.742188 -37.773438 4.234375 -38.421875 C 4.722656 -39.066406 5.359375 -39.335938 6.140625 -39.234375 C 6.660156 -39.078125 6.984375 -38.675781 7.109375 -38.03125 C 7.234375 -37.382812 7.21875 -36.660156 7.0625 -35.859375 C 6.914062 -35.054688 6.644531 -34.367188 6.25 -33.796875 C 5.863281 -33.234375 5.382812 -32.953125 4.8125 -32.953125 Z M 4.8125 -32.953125 "/></g></g><g style="fill:#000000;fill-opacity:1;"><g transform="translate(330.873358, 203.557504)"><path style="stroke:none" d="M 10.71875 9.953125 C 8.695312 11.453125 6.910156 12.203125 5.359375 12.203125 C 4.117188 12.203125 3.109375 11.773438 2.328125 10.921875 C 1.554688 10.066406 0.945312 8.960938 0.5 7.609375 C 0.0625 6.265625 -0.257812 4.84375 -0.46875 3.34375 C -0.675781 1.84375 -0.804688 0.429688 -0.859375 -0.890625 C -0.910156 -2.210938 -0.9375 -3.265625 -0.9375 -4.046875 C -0.988281 -7.410156 -0.882812 -11.035156 -0.625 -14.921875 C -0.363281 -18.804688 0.078125 -22.71875 0.703125 -26.65625 C 1.472656 -31.519531 2.476562 -36.242188 3.71875 -40.828125 C 4.96875 -45.410156 6.429688 -49.539062 8.109375 -53.21875 C 9.796875 -56.90625 11.675781 -59.820312 13.75 -61.96875 C 15.820312 -64.113281 18.050781 -65.1875 20.4375 -65.1875 C 21.988281 -65.1875 23.28125 -64.59375 24.3125 -63.40625 C 25.351562 -62.21875 25.910156 -60.441406 25.984375 -58.078125 C 26.066406 -55.722656 25.484375 -52.785156 24.234375 -49.265625 C 22.992188 -45.742188 20.894531 -41.675781 17.9375 -37.0625 C 14.988281 -32.457031 10.976562 -27.300781 5.90625 -21.59375 C 5.539062 -19.988281 5.085938 -17.679688 4.546875 -14.671875 C 4.003906 -11.671875 3.578125 -8.566406 3.265625 -5.359375 C 3.160156 -4.484375 3.039062 -3.253906 2.90625 -1.671875 C 2.78125 -0.0859375 2.742188 1.566406 2.796875 3.296875 C 2.847656 5.035156 3.066406 6.566406 3.453125 7.890625 C 3.847656 9.210938 4.507812 10.09375 5.4375 10.53125 C 6.375 10.96875 7.671875 10.644531 9.328125 9.5625 C 10.671875 8.675781 12.144531 7.285156 13.75 5.390625 C 15.351562 3.503906 17 1.398438 18.6875 -0.921875 C 20.375 -3.253906 21.992188 -5.597656 23.546875 -7.953125 C 25.097656 -10.316406 26.484375 -12.429688 27.703125 -14.296875 C 28.921875 -16.160156 29.863281 -17.507812 30.53125 -18.34375 C 30.6875 -18.5 30.945312 -18.578125 31.3125 -18.578125 C 31.675781 -18.578125 31.859375 -18.472656 31.859375 -18.265625 C 30.972656 -17.117188 29.910156 -15.597656 28.671875 -13.703125 C 27.429688 -11.816406 26.070312 -9.734375 24.59375 -7.453125 C 23.113281 -5.179688 21.570312 -2.90625 19.96875 -0.625 C 18.363281 1.65625 16.769531 3.726562 15.1875 5.59375 C 13.613281 7.457031 12.125 8.910156 10.71875 9.953125 Z M 6.140625 -23.625 C 10.796875 -29.164062 14.484375 -34.132812 17.203125 -38.53125 C 19.929688 -42.9375 21.875 -46.757812 23.03125 -50 C 24.195312 -53.238281 24.753906 -55.921875 24.703125 -58.046875 C 24.648438 -60.171875 24.195312 -61.722656 23.34375 -62.703125 C 22.488281 -63.691406 21.390625 -64.132812 20.046875 -64.03125 C 18.910156 -63.875 17.769531 -62.941406 16.625 -61.234375 C 15.488281 -59.523438 14.375 -57.296875 13.28125 -54.546875 C 12.195312 -51.796875 11.1875 -48.695312 10.25 -45.25 C 9.320312 -41.8125 8.507812 -38.226562 7.8125 -34.5 C 7.113281 -30.769531 6.554688 -27.144531 6.140625 -23.625 Z M 6.140625 -23.625 "/></g></g><g style="fill:#000000;fill-opacity:1;"><g transform="translate(62.198398, 221.471976)"><path style="stroke:none" d="M -1.265625 1.921875 C -1.503906 1.921875 -1.691406 1.894531 -1.828125 1.84375 C -1.960938 1.800781 -2.03125 1.679688 -2.03125 1.484375 C -2.03125 1.296875 -1.941406 1.101562 -1.765625 0.90625 C -1.585938 0.71875 -1.34375 0.625 -1.03125 0.625 C -0.8125 0.625 -0.582031 0.644531 -0.34375 0.6875 C -0.101562 0.738281 0.265625 0.816406 0.765625 0.921875 C 0.867188 0.847656 0.972656 0.75 1.078125 0.625 C 1.191406 0.5 1.285156 0.296875 1.359375 0.015625 C 1.429688 -0.265625 1.46875 -0.660156 1.46875 -1.171875 L 1.46875 -9.171875 C 1.46875 -9.742188 1.425781 -10.164062 1.34375 -10.4375 C 1.269531 -10.707031 1.097656 -10.882812 0.828125 -10.96875 L 0.828125 -11.203125 L 3.796875 -11.203125 L 3.796875 -10.96875 C 3.523438 -10.882812 3.347656 -10.707031 3.265625 -10.4375 C 3.191406 -10.164062 3.15625 -9.742188 3.15625 -9.171875 L 3.15625 -3.890625 C 3.15625 -3.046875 3.035156 -2.269531 2.796875 -1.5625 C 2.554688 -0.863281 2.226562 -0.253906 1.8125 0.265625 C 1.394531 0.796875 0.921875 1.203125 0.390625 1.484375 C -0.140625 1.773438 -0.691406 1.921875 -1.265625 1.921875 Z M -1.265625 1.921875 "/></g></g><g style="fill:#000000;fill-opacity:1;"><g transform="translate(70.852456, 221.471976)"><path style="stroke:none" d="M -0.34375 0 L -0.34375 -0.21875 C -0.09375 -0.3125 0.140625 -0.476562 0.359375 -0.71875 C 0.578125 -0.96875 0.796875 -1.359375 1.015625 -1.890625 L 4 -9.3125 C 4.113281 -9.613281 4.101562 -9.898438 3.96875 -10.171875 L 3.765625 -10.625 L 5.328125 -11.328125 L 9.296875 -1.875 C 9.515625 -1.351562 9.726562 -0.96875 9.9375 -0.71875 C 10.144531 -0.476562 10.34375 -0.3125 10.53125 -0.21875 L 10.53125 0 L 7.609375 0 L 7.609375 -0.21875 C 7.878906 -0.3125 7.976562 -0.476562 7.90625 -0.71875 C 7.84375 -0.96875 7.695312 -1.351562 7.46875 -1.875 L 6.515625 -4.171875 L 2.234375 -4.171875 L 1.3125 -1.890625 C 1.09375 -1.359375 1.003906 -0.960938 1.046875 -0.703125 C 1.097656 -0.441406 1.253906 -0.28125 1.515625 -0.21875 L 1.515625 0 Z M 2.34375 -4.4375 L 6.40625 -4.4375 L 4.34375 -9.375 Z M 2.34375 -4.4375 "/></g></g><g style="fill:#000000;fill-opacity:1;"><g transform="translate(85.247873, 221.471976)"><path style="stroke:none" d="M 4.578125 0.15625 C 3.753906 0.15625 2.988281 0.0390625 2.28125 -0.1875 C 1.582031 -0.414062 1.03125 -0.675781 0.625 -0.96875 L 0.5625 -3.375 L 0.765625 -3.40625 C 0.992188 -2.800781 1.300781 -2.253906 1.6875 -1.765625 C 2.070312 -1.285156 2.539062 -0.898438 3.09375 -0.609375 C 3.65625 -0.316406 4.285156 -0.171875 4.984375 -0.171875 C 5.359375 -0.171875 5.707031 -0.25 6.03125 -0.40625 C 6.351562 -0.5625 6.613281 -0.785156 6.8125 -1.078125 C 7.019531 -1.378906 7.125 -1.75 7.125 -2.1875 C 7.125 -2.582031 7.007812 -2.925781 6.78125 -3.21875 C 6.5625 -3.507812 6.273438 -3.765625 5.921875 -3.984375 C 5.578125 -4.203125 5.210938 -4.394531 4.828125 -4.5625 C 4.441406 -4.726562 4.09375 -4.878906 3.78125 -5.015625 C 3.226562 -5.242188 2.722656 -5.472656 2.265625 -5.703125 C 1.804688 -5.941406 1.4375 -6.242188 1.15625 -6.609375 C 0.882812 -6.984375 0.75 -7.476562 0.75 -8.09375 C 0.75 -9.082031 1.117188 -9.863281 1.859375 -10.4375 C 2.597656 -11.019531 3.597656 -11.3125 4.859375 -11.3125 C 5.460938 -11.3125 6.019531 -11.25 6.53125 -11.125 C 7.050781 -11.007812 7.519531 -10.847656 7.9375 -10.640625 L 8 -8.5625 L 7.828125 -8.5 C 7.492188 -9.320312 7.007812 -9.953125 6.375 -10.390625 C 5.738281 -10.828125 5.03125 -11.046875 4.25 -11.046875 C 3.613281 -11.046875 3.070312 -10.863281 2.625 -10.5 C 2.1875 -10.144531 1.96875 -9.65625 1.96875 -9.03125 C 1.96875 -8.675781 2.054688 -8.367188 2.234375 -8.109375 C 2.410156 -7.847656 2.644531 -7.617188 2.9375 -7.421875 C 3.226562 -7.234375 3.539062 -7.066406 3.875 -6.921875 C 4.21875 -6.773438 4.546875 -6.640625 4.859375 -6.515625 C 5.265625 -6.347656 5.675781 -6.175781 6.09375 -6 C 6.519531 -5.820312 6.910156 -5.609375 7.265625 -5.359375 C 7.617188 -5.109375 7.898438 -4.8125 8.109375 -4.46875 C 8.328125 -4.132812 8.4375 -3.726562 8.4375 -3.25 C 8.4375 -2.707031 8.320312 -2.222656 8.09375 -1.796875 C 7.875 -1.367188 7.578125 -1.007812 7.203125 -0.71875 C 6.828125 -0.425781 6.410156 -0.207031 5.953125 -0.0625 C 5.492188 0.0820312 5.035156 0.15625 4.578125 0.15625 Z M 4.578125 0.15625 "/></g></g><g style="fill:#000000;fill-opacity:1;"><g transform="translate(98.20395, 221.471976)"><path style="stroke:none" d="M 0.671875 0 L 0.671875 -0.21875 C 0.941406 -0.3125 1.113281 -0.492188 1.1875 -0.765625 C 1.269531 -1.035156 1.3125 -1.457031 1.3125 -2.03125 L 1.3125 -8.203125 C 1.3125 -8.859375 1.269531 -9.367188 1.1875 -9.734375 C 1.113281 -10.109375 0.992188 -10.382812 0.828125 -10.5625 C 0.671875 -10.75 0.46875 -10.882812 0.21875 -10.96875 L 0.21875 -11.203125 L 2.625 -11.203125 L 6.578125 -4.640625 L 10.34375 -11.203125 L 12.609375 -11.203125 L 12.609375 -10.96875 C 12.359375 -10.882812 12.15625 -10.75 12 -10.5625 C 11.84375 -10.382812 11.722656 -10.109375 11.640625 -9.734375 C 11.554688 -9.367188 11.515625 -8.859375 11.515625 -8.203125 L 11.515625 -2.03125 C 11.515625 -1.457031 11.554688 -1.035156 11.640625 -0.765625 C 11.722656 -0.492188 11.894531 -0.3125 12.15625 -0.21875 L 12.15625 0 L 9.1875 0 L 9.1875 -0.21875 C 9.445312 -0.3125 9.617188 -0.492188 9.703125 -0.765625 C 9.785156 -1.035156 9.828125 -1.457031 9.828125 -2.03125 L 9.828125 -9.78125 L 5.984375 -3.046875 L 5.609375 -3.046875 L 1.59375 -9.625 L 1.59375 -2.984375 C 1.59375 -2.335938 1.632812 -1.828125 1.71875 -1.453125 C 1.8125 -1.078125 1.945312 -0.800781 2.125 -0.625 C 2.3125 -0.445312 2.539062 -0.3125 2.8125 -0.21875 L 2.8125 0 Z M 0.671875 0 "/></g></g><g style="fill:#000000;fill-opacity:1;"><g transform="translate(115.669952, 221.471976)"><path style="stroke:none" d="M 0.75 0 L 0.75 -0.21875 C 1.019531 -0.3125 1.191406 -0.492188 1.265625 -0.765625 C 1.347656 -1.035156 1.390625 -1.457031 1.390625 -2.03125 L 1.390625 -9.171875 C 1.390625 -9.742188 1.347656 -10.164062 1.265625 -10.4375 C 1.191406 -10.707031 1.019531 -10.882812 0.75 -10.96875 L 0.75 -11.203125 L 3.734375 -11.203125 L 3.734375 -10.96875 C 3.460938 -10.882812 3.285156 -10.707031 3.203125 -10.4375 C 3.128906 -10.164062 3.09375 -9.742188 3.09375 -9.171875 L 3.09375 -2.03125 C 3.09375 -1.457031 3.128906 -1.035156 3.203125 -0.765625 C 3.285156 -0.492188 3.460938 -0.3125 3.734375 -0.21875 L 3.734375 0 Z M 0.75 0 "/></g></g><g style="fill:#000000;fill-opacity:1;"><g transform="translate(124.260041, 221.471976)"><path style="stroke:none" d="M 9.1875 0.125 L 1.6875 -9.34375 L 1.6875 -2.984375 C 1.6875 -2.335938 1.726562 -1.828125 1.8125 -1.453125 C 1.894531 -1.078125 2.023438 -0.800781 2.203125 -0.625 C 2.390625 -0.445312 2.617188 -0.3125 2.890625 -0.21875 L 2.890625 0 L 0.75 0 L 0.75 -0.21875 C 1.019531 -0.3125 1.191406 -0.492188 1.265625 -0.765625 C 1.347656 -1.035156 1.390625 -1.457031 1.390625 -2.03125 L 1.390625 -9.171875 C 1.390625 -9.742188 1.335938 -10.164062 1.234375 -10.4375 C 1.128906 -10.707031 0.90625 -10.882812 0.5625 -10.96875 L 0.5625 -11.203125 L 2.375 -11.203125 L 9.09375 -2.78125 L 9.09375 -8.203125 C 9.09375 -8.859375 9.046875 -9.367188 8.953125 -9.734375 C 8.867188 -10.109375 8.734375 -10.382812 8.546875 -10.5625 C 8.367188 -10.75 8.144531 -10.882812 7.875 -10.96875 L 7.875 -11.203125 L 10.03125 -11.203125 L 10.03125 -10.96875 C 9.757812 -10.882812 9.582031 -10.707031 9.5 -10.4375 C 9.425781 -10.164062 9.390625 -9.742188 9.390625 -9.171875 L 9.390625 0.125 Z M 9.1875 0.125 "/></g></g><g style="fill:#000000;fill-opacity:1;"><g transform="translate(138.959323, 221.471976)"><path style="stroke:none" d="M 0.75 0 L 0.75 -0.21875 C 1.019531 -0.3125 1.191406 -0.492188 1.265625 -0.765625 C 1.347656 -1.035156 1.390625 -1.457031 1.390625 -2.03125 L 1.390625 -9.171875 C 1.390625 -9.742188 1.347656 -10.164062 1.265625 -10.4375 C 1.191406 -10.707031 1.019531 -10.882812 0.75 -10.96875 L 0.75 -11.203125 L 8.4375 -11.203125 L 8.609375 -8.9375 L 8.40625 -8.890625 C 8.082031 -9.679688 7.648438 -10.21875 7.109375 -10.5 C 6.566406 -10.789062 5.847656 -10.9375 4.953125 -10.9375 L 3.09375 -10.9375 L 3.09375 -6.140625 L 4.625 -6.140625 C 5.269531 -6.140625 5.78125 -6.179688 6.15625 -6.265625 C 6.53125 -6.359375 6.804688 -6.492188 6.984375 -6.671875 C 7.171875 -6.847656 7.304688 -7.078125 7.390625 -7.359375 L 7.609375 -7.359375 L 7.609375 -4.671875 L 7.390625 -4.671875 C 7.304688 -4.953125 7.171875 -5.179688 6.984375 -5.359375 C 6.804688 -5.535156 6.53125 -5.664062 6.15625 -5.75 C 5.78125 -5.84375 5.269531 -5.890625 4.625 -5.890625 L 3.09375 -5.890625 L 3.09375 -1.0625 C 3.09375 -0.519531 3.359375 -0.25 3.890625 -0.25 L 5.421875 -0.25 C 6.234375 -0.25 6.914062 -0.398438 7.46875 -0.703125 C 8.019531 -1.003906 8.445312 -1.5625 8.75 -2.375 L 8.953125 -2.34375 L 8.84375 0 Z M 0.75 0 "/></g></g><g style="fill:#000000;fill-opacity:1;"><g transform="translate(152.587098, 221.471976)"><path style="stroke:none" d=""/></g></g><g style="fill:#000000;fill-opacity:1;"><g transform="translate(159.897774, 221.471976)"><path style="stroke:none" d="M 0.75 0 L 0.75 -0.21875 C 1.019531 -0.3125 1.191406 -0.492188 1.265625 -0.765625 C 1.347656 -1.035156 1.390625 -1.457031 1.390625 -2.03125 L 1.390625 -9.171875 C 1.390625 -9.742188 1.347656 -10.164062 1.265625 -10.4375 C 1.191406 -10.707031 1.019531 -10.882812 0.75 -10.96875 L 0.75 -11.203125 L 3.734375 -11.203125 L 3.734375 -10.96875 C 3.460938 -10.882812 3.285156 -10.707031 3.203125 -10.4375 C 3.128906 -10.164062 3.09375 -9.742188 3.09375 -9.171875 L 3.09375 -1.09375 C 3.09375 -0.550781 3.359375 -0.28125 3.890625 -0.28125 L 5.203125 -0.28125 C 6.015625 -0.28125 6.648438 -0.40625 7.109375 -0.65625 C 7.578125 -0.90625 7.96875 -1.367188 8.28125 -2.046875 L 8.5 -2.015625 L 8.375 0 Z M 0.75 0 "/></g></g><g style="fill:#000000;fill-opacity:1;"><g transform="translate(172.789882, 221.471976)"><path style="stroke:none" d="M 0.75 0 L 0.75 -0.21875 C 1.019531 -0.3125 1.191406 -0.492188 1.265625 -0.765625 C 1.347656 -1.035156 1.390625 -1.457031 1.390625 -2.03125 L 1.390625 -9.171875 C 1.390625 -9.742188 1.347656 -10.164062 1.265625 -10.4375 C 1.191406 -10.707031 1.019531 -10.882812 0.75 -10.96875 L 0.75 -11.203125 L 3.734375 -11.203125 L 3.734375 -10.96875 C 3.460938 -10.882812 3.285156 -10.707031 3.203125 -10.4375 C 3.128906 -10.164062 3.09375 -9.742188 3.09375 -9.171875 L 3.09375 -2.03125 C 3.09375 -1.457031 3.128906 -1.035156 3.203125 -0.765625 C 3.285156 -0.492188 3.460938 -0.3125 3.734375 -0.21875 L 3.734375 0 Z M 0.75 0 "/></g></g><g style="fill:#000000;fill-opacity:1;"><g transform="translate(181.379972, 221.471976)"><path style="stroke:none" d="M 9.1875 0.125 L 1.6875 -9.34375 L 1.6875 -2.984375 C 1.6875 -2.335938 1.726562 -1.828125 1.8125 -1.453125 C 1.894531 -1.078125 2.023438 -0.800781 2.203125 -0.625 C 2.390625 -0.445312 2.617188 -0.3125 2.890625 -0.21875 L 2.890625 0 L 0.75 0 L 0.75 -0.21875 C 1.019531 -0.3125 1.191406 -0.492188 1.265625 -0.765625 C 1.347656 -1.035156 1.390625 -1.457031 1.390625 -2.03125 L 1.390625 -9.171875 C 1.390625 -9.742188 1.335938 -10.164062 1.234375 -10.4375 C 1.128906 -10.707031 0.90625 -10.882812 0.5625 -10.96875 L 0.5625 -11.203125 L 2.375 -11.203125 L 9.09375 -2.78125 L 9.09375 -8.203125 C 9.09375 -8.859375 9.046875 -9.367188 8.953125 -9.734375 C 8.867188 -10.109375 8.734375 -10.382812 8.546875 -10.5625 C 8.367188 -10.75 8.144531 -10.882812 7.875 -10.96875 L 7.875 -11.203125 L 10.03125 -11.203125 L 10.03125 -10.96875 C 9.757812 -10.882812 9.582031 -10.707031 9.5 -10.4375 C 9.425781 -10.164062 9.390625 -9.742188 9.390625 -9.171875 L 9.390625 0.125 Z M 9.1875 0.125 "/></g></g><g style="fill:#000000;fill-opacity:1;"><g transform="translate(196.079254, 221.471976)"><path style="stroke:none" d="M -0.34375 0 L -0.34375 -0.21875 C -0.09375 -0.3125 0.140625 -0.476562 0.359375 -0.71875 C 0.578125 -0.96875 0.796875 -1.359375 1.015625 -1.890625 L 4 -9.3125 C 4.113281 -9.613281 4.101562 -9.898438 3.96875 -10.171875 L 3.765625 -10.625 L 5.328125 -11.328125 L 9.296875 -1.875 C 9.515625 -1.351562 9.726562 -0.96875 9.9375 -0.71875 C 10.144531 -0.476562 10.34375 -0.3125 10.53125 -0.21875 L 10.53125 0 L 7.609375 0 L 7.609375 -0.21875 C 7.878906 -0.3125 7.976562 -0.476562 7.90625 -0.71875 C 7.84375 -0.96875 7.695312 -1.351562 7.46875 -1.875 L 6.515625 -4.171875 L 2.234375 -4.171875 L 1.3125 -1.890625 C 1.09375 -1.359375 1.003906 -0.960938 1.046875 -0.703125 C 1.097656 -0.441406 1.253906 -0.28125 1.515625 -0.21875 L 1.515625 0 Z M 2.34375 -4.4375 L 6.40625 -4.4375 L 4.34375 -9.375 Z M 2.34375 -4.4375 "/></g></g><g style="fill:#000000;fill-opacity:1;"><g transform="translate(210.474671, 221.471976)"><path style="stroke:none" d="M 9.1875 0.125 L 1.6875 -9.34375 L 1.6875 -2.984375 C 1.6875 -2.335938 1.726562 -1.828125 1.8125 -1.453125 C 1.894531 -1.078125 2.023438 -0.800781 2.203125 -0.625 C 2.390625 -0.445312 2.617188 -0.3125 2.890625 -0.21875 L 2.890625 0 L 0.75 0 L 0.75 -0.21875 C 1.019531 -0.3125 1.191406 -0.492188 1.265625 -0.765625 C 1.347656 -1.035156 1.390625 -1.457031 1.390625 -2.03125 L 1.390625 -9.171875 C 1.390625 -9.742188 1.335938 -10.164062 1.234375 -10.4375 C 1.128906 -10.707031 0.90625 -10.882812 0.5625 -10.96875 L 0.5625 -11.203125 L 2.375 -11.203125 L 9.09375 -2.78125 L 9.09375 -8.203125 C 9.09375 -8.859375 9.046875 -9.367188 8.953125 -9.734375 C 8.867188 -10.109375 8.734375 -10.382812 8.546875 -10.5625 C 8.367188 -10.75 8.144531 -10.882812 7.875 -10.96875 L 7.875 -11.203125 L 10.03125 -11.203125 L 10.03125 -10.96875 C 9.757812 -10.882812 9.582031 -10.707031 9.5 -10.4375 C 9.425781 -10.164062 9.390625 -9.742188 9.390625 -9.171875 L 9.390625 0.125 Z M 9.1875 0.125 "/></g></g><g style="fill:#000000;fill-opacity:1;"><g transform="translate(225.173953, 221.471976)"><path style="stroke:none" d="M 6.890625 0.15625 C 5.671875 0.15625 4.609375 -0.0820312 3.703125 -0.5625 C 2.804688 -1.039062 2.109375 -1.71875 1.609375 -2.59375 C 1.109375 -3.46875 0.859375 -4.484375 0.859375 -5.640625 C 0.859375 -6.410156 1.003906 -7.132812 1.296875 -7.8125 C 1.585938 -8.5 1.992188 -9.101562 2.515625 -9.625 C 3.046875 -10.15625 3.679688 -10.566406 4.421875 -10.859375 C 5.160156 -11.160156 5.976562 -11.3125 6.875 -11.3125 C 7.207031 -11.3125 7.59375 -11.285156 8.03125 -11.234375 C 8.46875 -11.179688 8.894531 -11.097656 9.3125 -10.984375 C 9.726562 -10.867188 10.078125 -10.71875 10.359375 -10.53125 L 10.421875 -8.421875 L 10.21875 -8.375 C 10.007812 -8.925781 9.695312 -9.394531 9.28125 -9.78125 C 8.863281 -10.175781 8.394531 -10.476562 7.875 -10.6875 C 7.351562 -10.90625 6.820312 -11.015625 6.28125 -11.015625 C 5.59375 -11.015625 4.960938 -10.851562 4.390625 -10.53125 C 3.828125 -10.21875 3.378906 -9.742188 3.046875 -9.109375 C 2.722656 -8.472656 2.554688 -7.671875 2.546875 -6.703125 C 2.535156 -5.941406 2.640625 -5.179688 2.859375 -4.421875 C 3.078125 -3.660156 3.394531 -2.960938 3.8125 -2.328125 C 4.238281 -1.691406 4.753906 -1.179688 5.359375 -0.796875 C 5.960938 -0.410156 6.648438 -0.21875 7.421875 -0.21875 C 7.921875 -0.21875 8.378906 -0.320312 8.796875 -0.53125 C 9.222656 -0.738281 9.539062 -1.039062 9.75 -1.4375 L 9.75 -2.890625 C 9.75 -3.523438 9.691406 -3.972656 9.578125 -4.234375 C 9.472656 -4.503906 9.25 -4.6875 8.90625 -4.78125 L 8.90625 -5.015625 L 11.390625 -5.015625 L 11.390625 -2.0625 C 10.992188 -1.539062 10.53125 -1.113281 10 -0.78125 C 9.46875 -0.457031 8.925781 -0.21875 8.375 -0.0625 C 7.832031 0.0820312 7.335938 0.15625 6.890625 0.15625 Z M 6.890625 0.15625 "/></g></g></g></svg>